<?xml version="1.0" encoding="utf-8" ?>
<svg fill="currentColor" xmlns="http://www.w3.org/2000/svg" xmlns:xlink="http://www.w3.org/1999/xlink" width="873" height="873" viewBox="0 0 873 873">
  <path d="M740.679 213.285C753.831 212.139 762.474 214.34 769.482 226.958C773.786 234.707 774.265 243.305 772.351 252.128C772.143 253.086 768.986 258.275 768.279 259.424C756.366 279.246 739.442 289.096 721.61 303.117C695.678 323.506 656.518 344.365 643.269 375.95C638.393 387.575 643.641 403.414 653.164 410.999C673.173 426.937 700.72 433.642 725.071 440.203C731.417 441.921 738.321 442.36 744.685 444.806C757.711 448.574 770.855 450.435 783.982 454.452C806.387 461.31 837.493 466.865 851.301 487.763C854.335 492.781 855.136 500.906 853.378 506.403C850.151 516.316 841.914 518.758 833.317 521.696C820.356 526.126 806.219 524.43 792.73 524.019C789.147 523.91 784.087 521.94 780.111 521.648C770.484 520.941 761 519.744 751.52 517.913C747.883 517.214 743.319 517.609 739.578 516.894C736.424 516.54 732.818 515.082 729.743 514.805C721.493 514.061 713.589 512.721 705.462 511.225C701.097 510.421 695.987 510.309 691.518 509.736C672.733 507.329 651.109 505.094 633.694 514.159C633.284 514.886 632.853 515.597 632.419 516.31C630.441 519.556 628.786 522.25 629.389 526.218C633.017 550.095 676.429 593.464 693.235 612.794C707.121 628.765 720.877 644.797 733.794 661.567C744.5 675.466 758.243 694.115 762.31 711.39C764.142 719.169 764.526 728.77 760.063 735.715C757.975 738.965 755.054 741.427 751.179 742.119C731.123 745.698 689.831 699.249 676.234 685.099C661.123 669.376 646.523 653.179 631.351 637.52C618.464 624.218 604.463 610.318 589.176 599.806C583.381 595.821 573.985 589.978 566.691 591.519C562.972 592.305 559.88 595.093 557.898 598.241C554.088 604.296 554.952 611.813 554.961 618.638C554.968 624.341 554.366 630.175 554.757 635.854C555.235 642.799 556.57 649.439 557.747 656.272C558.473 660.48 558.848 664.744 559.617 668.946C560.279 672.562 561.309 676.112 562.041 679.716L568.849 713.6C569.697 717.843 570.171 721.862 571.114 726.193C573.002 733.645 574.212 742.392 576.424 750.033C577.269 754.815 576.682 761.911 577.627 766.451C581.819 786.594 580.116 801.903 576.332 821.732C572.907 825.391 569.002 831.239 564.088 832.814C559.155 834.395 550.564 833.927 546.041 831.411C539.716 827.892 534.501 821.168 531.12 814.899C517.364 789.394 511.646 738.964 507.347 709.428C506.795 705.632 505.769 701.914 505.162 698.126C503.196 685.874 501.409 673.502 498.118 661.506C495.256 651.072 491.103 636.114 482.841 628.814C480.173 626.457 476.919 624.919 473.841 623.168C466.097 623.008 460.233 625.18 454.489 630.406C435.471 647.708 421.526 701.828 414.319 727.217C412.26 734.467 408.807 741.152 408.436 748.787C404.538 753.32 400.52 769.115 397.387 776.514C387.521 799.815 375.009 826.505 347.826 832.957C337.428 834.605 333.431 820.954 333.036 813.48C332.097 795.709 335.052 776.557 338.371 759.259C343.604 731.984 350.442 704.98 358.434 678.497C364.663 657.627 371.385 636.907 378.594 616.354C379.935 612.49 380.948 608.179 382.38 604.452C411.778 527.934 441.31 445.146 495.538 382.355C548.525 320.999 615.938 274.348 687.126 236.869C704.518 227.712 720.608 215.294 740.679 213.285Z"/>
  <path d="M499.991 48.772C505.194 48.1001 513.958 48.7892 519.122 49.3663C525.145 55.0783 529.92 58.1361 532.904 66.3494C536.402 75.9823 535.457 91.894 534.788 102.177C534.553 105.796 534.321 109.526 533.675 113.092C533.061 116.48 532.051 119.801 531.573 123.213C529.912 135.086 528.812 147.083 526.98 158.937C525.376 169.321 523.124 179.661 521.343 190.013C520.494 194.946 521.193 199.912 518.972 204.555C517.401 207.84 517.289 211.347 516.462 214.845C514.256 224.17 512.098 233.585 509.521 242.815C506.001 255.421 502.348 268.168 498.141 280.561C496.971 284.009 495.107 287.243 494.008 290.688C493.063 293.648 493.281 298.584 490.865 300.589C489.855 301.428 479.641 327.277 477.863 331.125C475.036 337.242 471.859 343.208 468.912 349.269C467.186 352.82 465.717 356.609 463.843 360.06C462.35 362.808 460.461 365.407 458.867 368.11C451.322 380.906 443.323 393.235 435.027 405.557C429.506 413.757 422.555 421.578 416.08 429.05C413.903 431.564 410.928 434.171 409.116 436.919C408.617 437.677 408.436 438.695 408.23 439.567L408.117 440.062C407.808 440.146 405.974 440.601 405.905 440.67C402.266 444.338 395.373 452.159 392.181 455.415C375.27 472.984 357.895 490.099 340.074 506.743C337.379 509.291 323.998 520.922 323.196 522.705L323.932 523.529C322.368 525.131 320.632 524.111 319.322 525.313C311.37 532.614 303.276 539.86 295.099 546.911C277.029 562.277 258.62 577.238 239.885 591.785C205.128 618.639 166.888 646.435 126.354 664.123C124.594 664.891 121.946 665.162 120.047 665.86C118.225 666.53 116.526 667.699 114.609 667.927C107.815 668.507 103.923 668.504 98.7118 663.899C98.1404 662.297 97.6904 660.708 97.3765 659.039C95.4294 648.685 97.221 637.765 101.899 628.354C106.806 618.481 115.349 609.166 122.991 601.322C142.025 581.787 164.033 565.426 185.512 548.708C202.959 535.128 229.162 515.551 241.406 497.601C246.348 490.356 250.588 481.814 248.682 472.773C247.672 467.981 244.373 463.617 240.262 461.027C225.067 451.452 180.194 460.49 162.899 464.518C158.924 465.444 155.102 466.885 151.142 467.783C148.136 468.464 144.952 468.474 141.901 468.909C139.364 469.271 136.864 470.034 134.374 470.636C119.084 474.262 103.644 477.223 88.0973 479.511C84.2907 480.099 77.5681 481.773 74.1538 481.829C58.5924 482.088 44.7073 484.737 30.7671 476.305C20.2334 469.933 16.0863 455.199 23.0565 445.431C30.9368 434.387 53.5597 425.756 66.4691 423.163C76.487 420.054 86.6942 418.58 96.8404 416.174C99.18 415.619 101.176 414.31 103.586 413.912C107.535 413.259 111.596 413.418 115.536 412.76C130.916 410.192 146.239 407.232 161.591 404.471C165.875 403.7 170.236 403.324 174.534 402.602C179.602 401.749 184.684 400.536 189.715 399.469C202.572 396.74 233.393 389.898 240.435 378.42C242.685 374.751 242.809 369.885 241.687 365.82C236.338 346.428 167.318 320.399 149.2 313.098C140.598 309.632 132.148 305.764 123.535 302.339C120.517 301.139 117.339 300.334 114.353 299.064C95.417 291.074 76.8859 282.155 58.8278 272.34C48.7991 266.781 30.1466 253.312 38.765 240.395C43.9151 232.676 52.509 228.463 61.6648 228.397C67.7617 228.353 73.7042 227.569 79.8668 228.492C98.0624 231.255 115.711 235.87 133.078 241.954C137.498 243.501 142.042 244.598 146.302 246.172C168.746 254.463 191.086 262.978 213.438 271.511C216.656 272.776 219.772 273.135 223.057 274.297C240.896 280.61 262.017 289.266 281.208 286.528C285.457 285.921 289.083 281.264 291.088 277.86C291.163 272.483 291.481 263.434 289.898 258.456C275.667 214.252 247.476 178.185 227.802 136.077C218.048 116.644 196.108 69.2181 233.359 64.8584C247.899 63.1568 264.976 80.6539 273.513 90.6286C304.519 126.853 325.485 168.718 357.749 204.112C388.83 238.209 416.385 235.551 435.327 191.97C436.357 189.606 437.646 184.349 438.674 182.222C451.812 155.042 463.056 50.9421 499.991 48.772Z"/>
</svg>
