<svg xmlns="http://www.w3.org/2000/svg" viewBox="0 0 400 400" fill="currentColor"><path fill-rule="evenodd" clip-rule="evenodd" d="M146.551 26.094C156.665 25.0314 167.892 31.7446 170.198 42.0039C170.661 44.0635 170.825 46.1788 170.687 48.285C170.293 55.0618 168.72 62.1578 167.532 68.8761C165.679 79.5663 163.75 90.2432 161.745 100.906C159.55 112.548 156.351 123.341 163.212 133.946C168.424 142.234 175.07 145.55 184.462 148.189C206.687 154.434 242.432 146.022 240.026 116.891C239.596 111.684 237.785 104.245 236.795 98.7352C234.847 87.2655 232.738 75.8235 230.47 64.4126C228.058 52.5114 224.586 37.9887 237.354 29.9525C243.772 25.9129 250.007 25.2016 257.248 26.9694C269.783 30.0295 272.288 39.9516 275.658 50.7783C279.003 60.4328 281.788 70.0581 284.891 79.7552L313.631 169.152L339.801 250.675C343.407 261.622 346.937 272.594 350.391 283.589C355.383 299.643 361.224 316.292 356.392 333.188C348.804 357.416 327.839 370.877 303.361 373.316C297.351 373.914 291.432 373.726 285.412 373.688L264.523 373.625L193.717 373.519L128.246 373.594L109.966 373.658C104.02 373.691 98.171 373.887 92.2742 372.957C57.8538 367.525 32.8347 339.1 42.724 303.535C47.7667 285.4 53.9585 268.271 59.6098 250.511L92.6754 147.296C96.2064 136.611 98.8967 125.578 102.499 114.923C106.043 104.438 109.385 93.9114 112.77 83.3737L121.096 58.2811C122.954 52.6598 124.695 47.0046 126.725 41.4413C128.209 37.3753 130.153 33.6294 133.717 30.999C137.431 28.258 141.946 26.4824 146.551 26.094Z M112.675 209.603C115.631 209.479 119.104 209.861 121.607 211.558C128.172 216.009 133.624 222.605 139.549 227.994C148.742 236.106 158.437 245.195 168.345 252.345C180.065 260.803 195.352 271.467 210.148 264.442C226.146 256.845 239.76 245.38 252.994 233.814C261.348 226.513 268.431 217.594 277.694 211.43C282.052 208.527 289.609 209.13 293.571 212.384C296.185 214.533 298.443 217.971 298.586 221.364C299.077 232.987 287.182 246.889 280.491 255.375C276.651 260.126 272.849 264.932 268.793 269.501C254.805 285.26 224.408 316.135 203.074 318.518C188.293 320.169 173.051 309.067 162.162 300.34C154.417 294.015 147.006 287.291 139.961 280.195C129.419 269.478 101.29 237.526 99.881 223.715C99.5149 220.125 100.674 217.609 102.952 214.881C105.662 211.636 108.454 209.976 112.675 209.603Z"/></svg>