<svg xmlns="http://www.w3.org/2000/svg" viewBox="0 0 64 64"><rect width="64" height="64" rx="9" fill="#0a0b0a"/><g transform="translate(9.6 10.48) scale(0.1459)"><path fill="#4de852" d="M135.789 27.0095C145.661 26.7314 156.31 27.0167 166.213 26.9269C169.383 26.8982 185.917 26.6864 187.894 27.3097C189.173 28.3343 189.116 30.1996 189.302 31.8495C186.982 31.9461 184.671 32.1872 182.381 32.5713C175.153 33.844 170.686 36.3313 170.187 44.473C169.854 49.9094 170.069 55.5457 170.069 61.0055L170.07 92.4805L170.075 129.795C170.074 137.245 169.716 144.899 170.806 152.259C171.377 158.137 179.041 160.027 183.942 159.956C199.014 159.667 215.836 162.758 224.478 147.031C227.002 142.437 229.615 136.007 232.255 131.856C233.999 132.454 235.469 132.981 237.273 133.383C235.215 143.634 231.11 156.619 231.028 167.024L141.876 167.034C134.086 167.103 126.932 169.593 119.254 168.671C115.951 168.275 112.289 168.117 109.223 166.813C102.755 170.599 99.7058 174.397 100.035 182.251C105.512 189.974 114.459 188.831 122.641 188.967C136.993 189.206 152.541 187.513 166.222 192.625C173.312 195.275 178.48 200.928 181.365 207.809C183.179 214.292 183.225 217.938 182.399 224.452C178.142 258 141.188 272.793 111.079 269.478C91.5457 267.328 71.6488 255.053 75.1841 232.867C77.2225 220.075 89.6563 211.068 99.4219 203.919C91.7173 200.961 82.0316 195.591 82.818 186.259C83.6078 176.887 93.8183 169.351 100.202 163.486C94.3223 160.982 87.3262 153.606 84.6574 147.74C81.9038 141.687 81.8526 138.02 81.9187 131.496C81.8829 126.889 81.8653 122.844 83.6033 118.483C92.7264 95.5903 118.396 85.432 141.25 93.7763C145.275 95.2458 148.917 97.8713 152.699 99.1753L152.967 99.2654L152.939 58.2401C152.948 52.4307 153.177 45.7851 152.787 39.9734C152.708 38.7979 151.245 36.7623 150.445 35.8643C147.194 32.2164 138.59 31.9085 133.89 31.7412C134.265 29.755 134.354 28.4499 135.789 27.0095ZM143.544 256.503C152.897 253.789 158.477 251.164 163.735 242.285C166.993 236.782 167.973 227.399 166.429 221.32C165.118 216.158 160.703 211.888 155.98 209.416C147.69 205.076 138.392 206.131 129.26 206.016C125.094 205.964 119.635 205.896 115.525 206.098C101.392 207.291 91.8677 221.935 93.2121 235.454C93.8096 241.462 96.3138 245.394 100.946 249.185C112.409 258.564 129.661 259.376 143.544 256.503ZM128.845 160.699C151.215 156.244 150.198 119.948 138.355 105.86C133.293 99.8395 127.25 98.7424 119.885 99.0933C92.3916 102.215 97.7784 164.517 127.979 160.835C128.269 160.799 128.558 160.753 128.845 160.699Z"/></g></svg>
